# xmcd CD database file
# Generated: Sun Feb 24 23:32:16 2002 by KSCD
# 
# Track frame offsets:
#       150
#       18305
#       30567
#       49963
#       69672
#       84076
#       102227
#       121393
#       139538
#       157229
#
# Disc length: 2256 seconds
#
# Revision: 2
# Processed by: cddbd v1.4PL0 Copyright (c) Steve Scherf et al.
# Submitted via: Kscd 1.3.0
#
DISCID=7e08ce0a
DTITLE=Ronnie Antonio - Your Love Amazes Me
DYEAR=1900
DGENRE=
TTITLE0=Your Love Amazes Me
TTITLE1=Massachusets
TTITLE2=Lady In Red
TTITLE3=I Swear
TTITLE4=Now Or Never
TTITLE5=Eyes That See In The Dark
TTITLE6=Tears In Heaven
TTITLE7=When You Say Nothing At All
TTITLE8=Back For Good
TTITLE9=Crying
EXTD=Ronnie Antonio - Your Love Amazes Me
EXTT0=Your Love Amazes Me
EXTT1=Massachusets
EXTT2=Lady In Red
EXTT3=I Swear
EXTT4=Now Or Never
EXTT5=Eyes That See In The Dark
EXTT6=Tears In Heaven
EXTT7=When You Say Nothing At All
EXTT8=Back For Good
EXTT9=Crying
PLAYORDER=
